<?xml version="1.0" encoding="utf-8"?>
<!-- Generator: Adobe Illustrator 19.2.1, SVG Export Plug-In . SVG Version: 6.00 Build 0)  -->
<svg version="1.1" id="Livello_1" xmlns="http://www.w3.org/2000/svg" xmlns:xlink="http://www.w3.org/1999/xlink" x="0px" y="0px"
	 viewBox="0 0 303.1 97.3" style="enable-background:new 0 0 303.1 97.3;" xml:space="preserve">
<style type="text/css">
	.st0{fill:#327CCB;}
	.st1{fill:#253F8E;}
	.st2{fill:#F2F3F4;stroke:#FFFFFF;stroke-width:0.25;stroke-miterlimit:10;}
	.st3{fill:none;}
	.st4{fill:#FFFFFF;}
</style>
<rect x="-65.5" y="-23.2" class="st0" width="431" height="145"/>
<polygon class="st1" points="152.8,0 303.1,45 149.9,97.3 193.5,46.5 "/>
<g id="Slogan">
	<path class="st2" d="M82,72.8c0,2.9-2,4.5-5.2,4.5s-5.2-1.5-5.2-4.5V64h2v8.9c0,1.8,1.2,2.8,3.2,2.8s3.2-1,3.2-2.8V64h2V72.8z"/>
	<path class="st2" d="M92.8,69.8V77h-1.9v-7.1c0-1.4-0.7-1.7-1.7-1.7c-1.2,0-2.3,1-2.3,2.7V77H85V67h1.4l0.3,1.2h0.1
		c0.7-1,1.7-1.4,2.9-1.4C91.6,66.8,92.8,67.6,92.8,69.8z"/>
	<path class="st2" d="M108.6,69.8V77h-1.9v-7.1c0-1.4-0.7-1.7-1.7-1.7c-1.2,0-2.3,1-2.3,2.7V77h-1.9V67h1.4l0.3,1.2h0.1
		c0.7-1,1.7-1.4,2.9-1.4C107.5,66.8,108.6,67.6,108.6,69.8z"/>
	<path class="st2" d="M119.2,77h-1.4l-0.3-1.2h-0.1c-0.7,1-1.7,1.4-2.9,1.4c-1.8,0-3-0.8-3-3V67h1.9v7.1c0,1.4,0.7,1.7,1.7,1.7
		c1.2,0,2.3-1,2.3-2.7V67h1.9V77z"/>
	<path class="st2" d="M130.2,72c0,3.6-1.5,5.2-4.4,5.2s-4.4-1.6-4.4-5.2c0-3.6,1.5-5.2,4.4-5.2S130.2,68.4,130.2,72z M123.5,71.6
		v0.7c0,2.3,0.8,3.5,2.4,3.5s2.4-1.2,2.4-3.5v-0.7c0-2.3-0.8-3.5-2.4-3.5S123.5,69.3,123.5,71.6z"/>
	<path class="st2" d="M137,77h-2.1l-3.5-10h2.1l2.5,7.6h0.1l2.5-7.6h1.9L137,77z"/>
	<path class="st2" d="M150.3,72c0,3.6-1.5,5.2-4.4,5.2s-4.4-1.6-4.4-5.2c0-3.6,1.5-5.2,4.4-5.2S150.3,68.4,150.3,72z M143.6,71.6
		v0.7c0,2.3,0.8,3.5,2.4,3.5c1.6,0,2.4-1.2,2.4-3.5v-0.7c0-2.3-0.8-3.5-2.4-3.5C144.4,68.2,143.6,69.3,143.6,71.6z"/>
	<path class="st2" d="M171,69.8V77h-1.9v-7.1c0-1.4-0.7-1.7-1.6-1.7c-1.1,0-2.1,1-2.1,2.7V77h-1.9v-7.1c0-1.4-0.7-1.7-1.6-1.7
		c-1.1,0-2.1,1-2.1,2.7V77h-1.9V67h1.4l0.3,1.2h0.1c0.6-1,1.6-1.4,2.8-1.4c1.2,0,2.2,0.4,2.6,1.4c0.6-1,1.8-1.4,3-1.4
		C169.8,66.8,171,67.6,171,69.8z"/>
	<path class="st2" d="M182,72c0,3.6-1.5,5.2-4.4,5.2s-4.4-1.6-4.4-5.2c0-3.6,1.5-5.2,4.4-5.2S182,68.4,182,72z M175.3,71.6v0.7
		c0,2.3,0.8,3.5,2.4,3.5s2.4-1.2,2.4-3.5v-0.7c0-2.3-0.8-3.5-2.4-3.5S175.3,69.3,175.3,71.6z"/>
	<path class="st2" d="M192.1,77h-1.4l-0.3-1.2h-0.1c-0.6,0.9-1.6,1.4-2.7,1.4c-2.3,0-3.8-1.6-3.8-5.2c0-3.6,1.6-5.2,3.6-5.2
		c1.2,0,2.2,0.4,2.6,1.2h0.1v-4.7h1.9V77z M185.9,71.6v0.7c0,2.5,0.7,3.5,2.2,3.5s2.2-1.2,2.2-3.5v-0.6c0-2.4-0.7-3.6-2.2-3.6
		S185.9,69.2,185.9,71.6z"/>
	<path class="st2" d="M203.2,72c0,3.6-1.5,5.2-4.4,5.2s-4.4-1.6-4.4-5.2c0-3.6,1.5-5.2,4.4-5.2S203.2,68.4,203.2,72z M196.4,71.6
		v0.7c0,2.3,0.8,3.5,2.4,3.5s2.4-1.2,2.4-3.5v-0.7c0-2.3-0.8-3.5-2.4-3.5S196.4,69.3,196.4,71.6z"/>
	<path class="st2" d="M218.6,77h-1.4l-0.3-1.2h-0.1c-0.6,0.9-1.6,1.4-2.7,1.4c-2.3,0-3.8-1.6-3.8-5.2c0-3.6,1.6-5.2,3.6-5.2
		c1.2,0,2.2,0.4,2.6,1.2h0.1v-4.7h1.9V77z M212.3,71.6v0.7c0,2.5,0.7,3.5,2.2,3.5s2.2-1.2,2.2-3.5v-0.6c0-2.4-0.7-3.6-2.2-3.6
		S212.3,69.2,212.3,71.6z"/>
	<path class="st2" d="M223,65.1h-1.9v-1.9h1.9V65.1z M223,77h-1.9V67h1.9V77z"/>
	<path class="st2" d="M237.8,69.5c0,0.1,0,0.3,0,0.4h-2v-0.2c0-0.8-0.4-1.6-1.7-1.6c-1.3,0-1.6,0.8-1.6,1.4c0,2.2,5.6,0.9,5.6,4.6
		c0,2.1-1.6,3.1-3.9,3.1c-2.8,0-3.9-1.4-3.9-2.9c0-0.3,0-0.4,0-0.4h2v0.2c0,1.3,0.9,1.8,2,1.8c1,0,1.8-0.5,1.8-1.5
		c0-2.5-5.6-1.2-5.6-4.7c0-1.8,1.5-2.8,3.8-2.8C236.6,66.8,237.8,68,237.8,69.5z"/>
	<path class="st2" d="M248.6,72c0,3.6-1.6,5.2-3.6,5.2c-1.2,0-2.2-0.4-2.6-1.1h-0.1v4.2h-1.9V67h1.4l0.3,1.2h0.1
		c0.6-0.9,1.6-1.4,2.7-1.4C247.1,66.8,248.6,68.4,248.6,72z M242.3,71.6v0.7c0,2.3,0.7,3.5,2.2,3.5s2.2-1,2.2-3.5v-0.7
		c0-2.5-0.7-3.5-2.2-3.5S242.3,69.3,242.3,71.6z"/>
	<path class="st2" d="M259.1,71.5v1h-6.6c0,2.3,0.9,3.4,2.7,3.4c1.2,0,2.1-0.9,2.1-2.2h1.9c0,2.2-1.6,3.6-4,3.6
		c-3,0-4.6-1.5-4.6-5.2c0-3.6,1.5-5.2,4.6-5.2C257.8,66.8,259.1,68.1,259.1,71.5z M252.5,71.1h4.6c0-1.9-0.7-2.9-2-2.9
		C253.4,68.2,252.7,69.2,252.5,71.1z"/>
	<path class="st2" d="M269.3,77h-1.4l-0.3-1.2h-0.1c-0.6,0.9-1.6,1.4-2.7,1.4c-2.3,0-3.8-1.6-3.8-5.2c0-3.6,1.6-5.2,3.6-5.2
		c1.2,0,2.2,0.4,2.6,1.2h0.1v-4.7h1.9V77z M263,71.6v0.7c0,2.5,0.7,3.5,2.2,3.5s2.2-1.2,2.2-3.5v-0.6c0-2.4-0.7-3.6-2.2-3.6
		S263,69.2,263,71.6z"/>
	<path class="st2" d="M273.7,65.1h-1.9v-1.9h1.9V65.1z M273.7,77h-1.9V67h1.9V77z"/>
	<path class="st2" d="M281.1,66.9v1.6h-0.6c-1.2,0-2.3,0.6-2.3,2.4V77h-1.9V67h1.4l0.3,1.3h0.1c0.3-0.8,0.9-1.5,2.1-1.5
		C280.7,66.8,281.1,66.9,281.1,66.9z"/>
	<path class="st2" d="M290.8,71.5v1h-6.6c0,2.3,0.9,3.4,2.7,3.4c1.2,0,2.1-0.9,2.1-2.2h1.9c0,2.2-1.6,3.6-4,3.6
		c-3,0-4.6-1.5-4.6-5.2c0-3.6,1.5-5.2,4.6-5.2C289.5,66.8,290.8,68.1,290.8,71.5z M284.2,71.1h4.6c0-1.9-0.7-2.9-2-2.9
		C285.1,68.2,284.4,69.2,284.2,71.1z"/>
</g>
<g>
	<rect x="-21.8" y="17.5" class="st3" width="345.5" height="100.8"/>
	<path class="st4" d="M42.9,18.5l-4.5,36.4h-7.1l2.5-21.2c0.1-0.5,0.1-0.9,0.3-1.5c0.1-0.5,0.2-1.1,0.4-1.7l-11,18.8
		c-0.4,0.5-0.8,1-1.3,1.3C21.6,50.9,21,51,20.4,51h-1.1c-0.6,0-1.2-0.1-1.6-0.4c-0.5-0.3-0.8-0.7-1-1.3l-6.4-18.9
		c0,0.6,0,1.1-0.1,1.7c0,0.5-0.1,1-0.1,1.5L7.5,54.9H0.3l4.5-36.4H11c0.4,0,0.6,0,0.9,0c0.2,0,0.5,0.1,0.6,0.2
		c0.2,0.1,0.4,0.2,0.5,0.4c0.2,0.2,0.3,0.4,0.5,0.7L20,38.9c0.2,0.5,0.3,1,0.5,1.6c0.1,0.5,0.3,1.1,0.4,1.6c0.3-0.5,0.5-1.1,0.8-1.6
		c0.3-0.5,0.6-1.1,0.9-1.6l11.1-19.2c0.3-0.3,0.5-0.5,0.7-0.7c0.2-0.2,0.4-0.3,0.6-0.4c0.2-0.1,0.4-0.1,0.7-0.2c0.3,0,0.5,0,0.9,0
		H42.9z"/>
	<path class="st4" d="M69.9,29L53.1,61.7c-0.5,1-1.3,1.5-2.4,1.5h-5.8l5.9-10.5L44.4,29h6.5c0.5,0,1,0.1,1.2,0.4
		c0.3,0.3,0.5,0.6,0.6,0.9L55,41.5c0.1,0.5,0.2,1,0.3,1.5c0.1,0.5,0.1,1,0.2,1.5c0.2-0.5,0.4-1,0.6-1.5s0.4-1,0.7-1.5l4.8-11.1
		c0.2-0.4,0.5-0.7,0.9-1c0.4-0.3,0.8-0.4,1.2-0.4H69.9z"/>
	<path class="st4" d="M81.3,24.8l-1.1,8.8h10.3l-0.8,6H79.5l-1.1,9h13.6l-0.8,6.3H69.4l4.5-36.4h21.7l-0.8,6.3H81.3z"/>
	<path class="st4" d="M117.2,35.1l8.8,19.8h-7.3c-0.5,0-0.9-0.1-1.2-0.4c-0.3-0.3-0.5-0.6-0.7-0.9l-5.4-13.4
		c-0.1,0.1-0.1,0.2-0.2,0.3c-0.1,0.1-0.1,0.2-0.2,0.3l-8,12.8c-0.3,0.5-0.7,0.8-1.1,1c-0.4,0.2-0.9,0.3-1.3,0.3h-8.1L106,35.5
		l-7.9-17h7.4c0.5,0,0.9,0.1,1.1,0.2c0.2,0.1,0.4,0.4,0.6,0.7l4.8,11.5c0.2-0.3,0.4-0.6,0.6-1l6.4-10.4c0.3-0.4,0.5-0.6,0.8-0.8
		s0.6-0.3,1-0.3h8.6L117.2,35.1z"/>
	<path class="st4" d="M145.2,18.5c2.2,0,4,0.3,5.6,0.8c1.5,0.5,2.8,1.3,3.8,2.2c1,0.9,1.7,2,2.2,3.3c0.5,1.3,0.7,2.6,0.7,4.1
		c0,2-0.3,3.8-0.9,5.5s-1.5,3.2-2.8,4.4s-2.8,2.2-4.8,2.9c-1.9,0.7-4.2,1-6.8,1h-3.9l-1.5,12.3h-8.1l4.5-36.4H145.2z M143,36.5
		c1.2,0,2.1-0.2,2.9-0.5c0.8-0.3,1.4-0.8,1.9-1.5c0.5-0.6,0.8-1.4,1.1-2.2c0.2-0.9,0.3-1.8,0.3-2.9c0-0.7-0.1-1.4-0.3-2
		c-0.2-0.6-0.5-1.1-0.9-1.6c-0.4-0.4-0.9-0.8-1.5-1s-1.3-0.4-2.2-0.4h-3.8L139,36.5H143z"/>
	<path class="st4" d="M174.1,18.5c2.2,0,4.1,0.2,5.7,0.7s2.9,1.1,3.9,2c1,0.8,1.7,1.8,2.2,3c0.5,1.1,0.7,2.4,0.7,3.7
		c0,1.3-0.2,2.6-0.5,3.8c-0.4,1.2-0.9,2.3-1.6,3.3c-0.7,1-1.5,1.9-2.5,2.7c-1,0.8-2.1,1.4-3.4,1.9c0.5,0.3,1,0.6,1.4,1
		c0.4,0.4,0.8,0.9,1,1.5l5.3,12.8h-7.3c-0.7,0-1.3-0.1-1.7-0.4c-0.5-0.3-0.8-0.7-1-1.1l-4-10.8c-0.2-0.5-0.5-0.8-0.8-1
		s-0.8-0.3-1.3-0.3h-1.8l-1.7,13.6h-8.1l4.5-36.4H174.1z M172,35.7c1.2,0,2.2-0.2,3-0.5s1.5-0.8,2-1.4c0.5-0.6,0.9-1.3,1.1-2.1
		c0.2-0.8,0.3-1.6,0.3-2.5c0-0.7-0.1-1.3-0.3-1.9c-0.2-0.6-0.5-1-0.9-1.4c-0.4-0.4-1-0.7-1.6-0.9c-0.6-0.2-1.4-0.3-2.3-0.3h-2.9
		l-1.4,11.1H172z"/>
	<path class="st4" d="M201.2,24.8l-1.1,8.8h10.3l-0.8,6h-10.3l-1.1,9h13.6l-0.8,6.3h-21.8l4.5-36.4h21.7l-0.8,6.3H201.2z"/>
	<path class="st4" d="M238.5,25.8c-0.3,0.4-0.6,0.7-0.9,0.9c-0.3,0.2-0.6,0.3-1,0.3c-0.4,0-0.8-0.1-1.2-0.4s-0.8-0.5-1.3-0.8
		c-0.5-0.3-1-0.6-1.6-0.8c-0.6-0.3-1.3-0.4-2.2-0.4c-0.8,0-1.4,0.1-2,0.3s-1.1,0.5-1.4,0.9c-0.4,0.4-0.7,0.8-0.9,1.4
		c-0.2,0.5-0.3,1.1-0.3,1.7c0,0.7,0.2,1.2,0.6,1.7c0.4,0.4,0.9,0.8,1.5,1.2s1.3,0.7,2.1,0.9c0.8,0.3,1.6,0.6,2.4,0.9
		c0.8,0.3,1.6,0.7,2.4,1.2s1.5,1,2.1,1.6c0.6,0.6,1.1,1.4,1.5,2.3c0.4,0.9,0.6,2,0.6,3.3c0,1.8-0.3,3.6-1,5.2
		c-0.6,1.6-1.5,3-2.7,4.2c-1.2,1.2-2.6,2.2-4.3,2.9c-1.7,0.7-3.6,1.1-5.7,1.1c-1,0-2.1-0.1-3.2-0.4s-2.1-0.6-3-1
		c-1-0.4-1.9-0.9-2.7-1.5c-0.8-0.6-1.5-1.2-2.1-2l2.9-3.8c0.2-0.3,0.5-0.5,0.9-0.7c0.3-0.2,0.7-0.3,1-0.3c0.5,0,0.9,0.2,1.4,0.5
		c0.4,0.3,0.9,0.7,1.5,1.1s1.2,0.8,1.9,1.1c0.7,0.3,1.6,0.5,2.6,0.5c1.5,0,2.7-0.4,3.5-1.2c0.8-0.8,1.2-2,1.2-3.7
		c0-0.8-0.2-1.4-0.6-1.8s-0.9-0.9-1.5-1.2c-0.6-0.3-1.3-0.6-2.1-0.9c-0.8-0.3-1.6-0.5-2.4-0.8s-1.6-0.7-2.4-1.1s-1.5-0.9-2.1-1.6
		s-1.1-1.5-1.5-2.4c-0.4-1-0.6-2.1-0.6-3.5c0-1.6,0.3-3.2,0.9-4.7c0.6-1.5,1.5-2.8,2.6-4c1.1-1.1,2.5-2.1,4.1-2.8
		c1.6-0.7,3.4-1,5.5-1c1,0,2,0.1,3,0.3c1,0.2,1.9,0.5,2.7,0.9c0.8,0.4,1.6,0.8,2.3,1.4c0.7,0.5,1.3,1.1,1.8,1.7L238.5,25.8z"/>
	<path class="st4" d="M264.6,25.8c-0.3,0.4-0.6,0.7-0.9,0.9c-0.3,0.2-0.6,0.3-1,0.3c-0.4,0-0.8-0.1-1.2-0.4s-0.8-0.5-1.3-0.8
		c-0.5-0.3-1-0.6-1.6-0.8c-0.6-0.3-1.3-0.4-2.2-0.4c-0.8,0-1.4,0.1-2,0.3s-1.1,0.5-1.4,0.9c-0.4,0.4-0.7,0.8-0.9,1.4
		c-0.2,0.5-0.3,1.1-0.3,1.7c0,0.7,0.2,1.2,0.6,1.7c0.4,0.4,0.9,0.8,1.5,1.2s1.3,0.7,2.1,0.9c0.8,0.3,1.6,0.6,2.4,0.9
		c0.8,0.3,1.6,0.7,2.4,1.2s1.5,1,2.1,1.6c0.6,0.6,1.1,1.4,1.5,2.3c0.4,0.9,0.6,2,0.6,3.3c0,1.8-0.3,3.6-1,5.2
		c-0.6,1.6-1.5,3-2.7,4.2c-1.2,1.2-2.6,2.2-4.3,2.9c-1.7,0.7-3.6,1.1-5.7,1.1c-1,0-2.1-0.1-3.2-0.4s-2.1-0.6-3-1
		c-1-0.4-1.9-0.9-2.7-1.5c-0.8-0.6-1.5-1.2-2.1-2l2.9-3.8c0.2-0.3,0.5-0.5,0.9-0.7c0.3-0.2,0.7-0.3,1-0.3c0.5,0,0.9,0.2,1.4,0.5
		c0.4,0.3,0.9,0.7,1.5,1.1s1.2,0.8,1.9,1.1c0.7,0.3,1.6,0.5,2.6,0.5c1.5,0,2.7-0.4,3.5-1.2c0.8-0.8,1.2-2,1.2-3.7
		c0-0.8-0.2-1.4-0.6-1.8s-0.9-0.9-1.5-1.2c-0.6-0.3-1.3-0.6-2.1-0.9c-0.8-0.3-1.6-0.5-2.4-0.8s-1.6-0.7-2.4-1.1s-1.5-0.9-2.1-1.6
		s-1.1-1.5-1.5-2.4c-0.4-1-0.6-2.1-0.6-3.5c0-1.6,0.3-3.2,0.9-4.7c0.6-1.5,1.5-2.8,2.6-4c1.1-1.1,2.5-2.1,4.1-2.8
		c1.6-0.7,3.4-1,5.5-1c1,0,2,0.1,3,0.3c1,0.2,1.9,0.5,2.7,0.9c0.8,0.4,1.6,0.8,2.3,1.4c0.7,0.5,1.3,1.1,1.8,1.7L264.6,25.8z"/>
	<path class="st4" d="M267.1,52.5c0-0.4,0.1-0.7,0.2-1c0.1-0.3,0.3-0.6,0.6-0.8c0.2-0.2,0.5-0.4,0.9-0.6c0.3-0.1,0.7-0.2,1.1-0.2
		c0.4,0,0.7,0.1,1.1,0.2c0.3,0.1,0.6,0.3,0.9,0.6c0.2,0.2,0.4,0.5,0.6,0.8s0.2,0.7,0.2,1s-0.1,0.7-0.2,1c-0.1,0.3-0.3,0.6-0.6,0.8
		c-0.2,0.2-0.5,0.4-0.9,0.6c-0.3,0.1-0.7,0.2-1.1,0.2c-0.4,0-0.8-0.1-1.1-0.2c-0.3-0.1-0.6-0.3-0.9-0.6c-0.2-0.2-0.4-0.5-0.6-0.8
		C267.2,53.2,267.1,52.9,267.1,52.5z"/>
	<path class="st4" d="M281.6,38.9l-1.9,16.1h-4.7l1.9-16.1H281.6z M282.5,34.5c0,0.4-0.1,0.7-0.2,1.1c-0.2,0.3-0.4,0.6-0.7,0.9
		s-0.6,0.5-0.9,0.6c-0.3,0.1-0.7,0.2-1.1,0.2c-0.4,0-0.7-0.1-1-0.2c-0.3-0.1-0.6-0.4-0.9-0.6s-0.5-0.5-0.6-0.9s-0.2-0.7-0.2-1.1
		c0-0.4,0.1-0.7,0.2-1.1s0.4-0.6,0.6-0.9s0.6-0.5,0.9-0.6c0.3-0.1,0.7-0.2,1-0.2c0.4,0,0.7,0.1,1.1,0.2c0.3,0.1,0.6,0.3,0.9,0.6
		c0.3,0.3,0.5,0.6,0.6,0.9S282.5,34.1,282.5,34.5z"/>
	<path class="st4" d="M284.2,51.5c0-0.1,0-0.2,0-0.3s0-0.3,0-0.4c0-0.2,0-0.4,0.1-0.8s0.1-0.7,0.1-1.2l0.8-6.6H284
		c-0.2,0-0.4-0.1-0.5-0.2c-0.1-0.2-0.2-0.4-0.1-0.7l0.2-1.9l2.4-0.5l1.3-3.9c0.2-0.5,0.5-0.7,1.1-0.7h2.6l-0.6,4.7h3.6l-0.4,3.3H290
		l-0.8,6.3c-0.1,0.4-0.1,0.8-0.1,1s-0.1,0.4-0.1,0.6c0,0.1,0,0.2,0,0.3c0,0,0,0.1,0,0.1c0,0.3,0.1,0.5,0.2,0.8
		c0.1,0.2,0.4,0.3,0.7,0.3c0.2,0,0.3,0,0.4-0.1s0.2-0.1,0.3-0.1c0.1,0,0.2-0.1,0.2-0.1s0.2-0.1,0.2-0.1c0.1,0,0.3,0,0.3,0.1
		s0.1,0.2,0.2,0.3l1.1,2.3c-0.6,0.5-1.3,0.8-2.1,1c-0.7,0.2-1.5,0.3-2.2,0.3c-0.6,0-1.2-0.1-1.7-0.3s-0.9-0.4-1.3-0.7
		c-0.4-0.3-0.6-0.7-0.8-1.2C284.4,52.6,284.3,52.1,284.2,51.5z"/>
</g>
<g>
</g>
<g>
</g>
<g>
</g>
<g>
</g>
<g>
</g>
<g>
</g>
</svg>
